<mxfile host="app.diagrams.net" modified="2023-05-01T14:32:58.343Z" agent="Mozilla/5.0 (Windows NT 10.0; Win64; x64) AppleWebKit/537.36 (KHTML, like Gecko) Chrome/112.0.0.0 Safari/537.36 Edg/112.0.1722.58" version="21.1.6" etag="fyrSXPhj2mEzZsH1KIyA" type="github">
  <diagram name="第 1 页" id="uB7P6T-O3PmjdQm_OVVY">
    <mxGraphModel>
      <root>
        <mxCell id="0" />
        <mxCell id="1" parent="0" />
      </root>
    </mxGraphModel>
  </diagram>
</mxfile>
